<svg xmlns="http://www.w3.org/2000/svg" xmlns:xlink="http://www.w3.org/1999/xlink" width="564" zoomAndPan="magnify" viewBox="0 0 422.88 56.999997" height="76" preserveAspectRatio="xMidYMid meet" version="1.0"><defs><g/><clipPath id="20f26cb91f"><path d="M 72.652344 11 L 108.644531 11 L 108.644531 45.476562 L 72.652344 45.476562 Z M 72.652344 11 " clip-rule="nonzero"/></clipPath><clipPath id="4004ada511"><path d="M 72.652344 10.984375 L 108.644531 10.984375 L 108.644531 45.476562 L 72.652344 45.476562 Z M 72.652344 10.984375 " clip-rule="nonzero"/></clipPath><clipPath id="37b48d1e85"><path d="M 112.875 11 L 148.863281 11 L 148.863281 45.476562 L 112.875 45.476562 Z M 112.875 11 " clip-rule="nonzero"/></clipPath><clipPath id="748db4145b"><path d="M 112.875 10.984375 L 148.863281 10.984375 L 148.863281 45.476562 L 112.875 45.476562 Z M 112.875 10.984375 " clip-rule="nonzero"/></clipPath><clipPath id="8fb2043704"><path d="M 153.09375 11 L 189.085938 11 L 189.085938 45.476562 L 153.09375 45.476562 Z M 153.09375 11 " clip-rule="nonzero"/></clipPath><clipPath id="bf106d2dc4"><path d="M 153.09375 10.984375 L 189.085938 10.984375 L 189.085938 45.476562 L 153.09375 45.476562 Z M 153.09375 10.984375 " clip-rule="nonzero"/></clipPath><clipPath id="e147efffc0"><path d="M 193.316406 11 L 229.304688 11 L 229.304688 45.476562 L 193.316406 45.476562 Z M 193.316406 11 " clip-rule="nonzero"/></clipPath><clipPath id="f2d374ac80"><path d="M 193.316406 10.984375 L 229.304688 10.984375 L 229.304688 45.476562 L 193.316406 45.476562 Z M 193.316406 10.984375 " clip-rule="nonzero"/></clipPath><clipPath id="237f765c98"><path d="M 233.539062 11 L 269.527344 11 L 269.527344 45.476562 L 233.539062 45.476562 Z M 233.539062 11 " clip-rule="nonzero"/></clipPath><clipPath id="2d24b1bbae"><path d="M 233.539062 10.984375 L 269.527344 10.984375 L 269.527344 45.476562 L 233.539062 45.476562 Z M 233.539062 10.984375 " clip-rule="nonzero"/></clipPath></defs><g clip-path="url(#20f26cb91f)"><path fill="#d7caab" d="M 90.738281 11.105469 L 96.292969 22.371094 L 108.726562 24.175781 L 99.726562 32.953125 L 101.859375 45.335938 L 90.738281 39.488281 L 79.609375 45.335938 L 81.730469 32.953125 L 72.742188 24.175781 L 85.171875 22.371094 Z M 90.738281 11.105469 " fill-opacity="1" fill-rule="nonzero"/></g><g clip-path="url(#4004ada511)"><path fill="#d7caab" d="M 90.648438 10.996094 L 96.214844 22.261719 L 108.648438 24.070312 L 99.648438 32.84375 L 101.773438 45.226562 L 90.648438 39.382812 L 79.527344 45.226562 L 81.652344 32.84375 L 72.652344 24.070312 L 85.085938 22.261719 Z M 90.648438 10.996094 " fill-opacity="1" fill-rule="nonzero"/><path fill="#d7caab" d="M 90.648438 10.996094 L 96.214844 22.261719 L 108.648438 24.070312 L 99.648438 32.84375 L 101.773438 45.226562 L 90.648438 39.382812 L 79.527344 45.226562 L 81.652344 32.84375 L 72.652344 24.070312 L 85.085938 22.261719 Z M 90.648438 10.996094 " fill-opacity="1" fill-rule="nonzero"/><path fill="#d7caab" d="M 90.648438 10.996094 L 96.214844 22.261719 L 108.648438 24.070312 L 99.648438 32.84375 L 101.773438 45.226562 L 90.648438 39.382812 L 79.527344 45.226562 L 81.652344 32.84375 L 72.652344 24.070312 L 85.085938 22.261719 Z M 90.648438 10.996094 " fill-opacity="1" fill-rule="nonzero"/></g><g fill="#000000" fill-opacity="1"><g transform="translate(9.227104, 39.038569)"><g><path d="M 20.609375 -5.859375 L 16.15625 -5.859375 L 16.15625 0 L 13.859375 0 L 13.859375 -5.859375 L 1.28125 -5.859375 L 1.28125 -7.515625 L 13.09375 -22.296875 L 15.640625 -22.296875 L 4.234375 -7.90625 L 13.921875 -7.90625 L 13.921875 -13.0625 L 16.15625 -13.0625 L 16.15625 -7.90625 L 20.609375 -7.90625 Z M 20.609375 -5.859375 "/></g></g></g><g fill="#000000" fill-opacity="1"><g transform="translate(30.290512, 39.038569)"><g><path d="M 3.40625 -3.3125 C 3.894531 -3.3125 4.296875 -3.144531 4.609375 -2.8125 C 4.929688 -2.488281 5.09375 -2.082031 5.09375 -1.59375 C 5.09375 -1.332031 5.054688 -1.050781 4.984375 -0.75 C 4.910156 -0.457031 4.800781 -0.125 4.65625 0.25 L 3.3125 4.65625 L 1.78125 4.65625 L 2.875 0.03125 C 2.53125 -0.0703125 2.25 -0.265625 2.03125 -0.546875 C 1.820312 -0.835938 1.71875 -1.1875 1.71875 -1.59375 C 1.71875 -2.082031 1.875 -2.488281 2.1875 -2.8125 C 2.507812 -3.144531 2.914062 -3.3125 3.40625 -3.3125 Z M 3.40625 -3.3125 "/></g></g></g><g fill="#000000" fill-opacity="1"><g transform="translate(37.046102, 39.038569)"><g><path d="M 8.609375 -22.5 C 11.554688 -22.5 13.816406 -21.523438 15.390625 -19.578125 C 16.960938 -17.628906 17.75 -14.882812 17.75 -11.34375 C 17.75 -8.851562 17.320312 -6.75 16.46875 -5.03125 C 15.625 -3.3125 14.4375 -2.007812 12.90625 -1.125 C 11.375 -0.25 9.585938 0.1875 7.546875 0.1875 C 5.335938 0.1875 3.578125 -0.210938 2.265625 -1.015625 L 3.1875 -2.875 C 4.25 -2.164062 5.691406 -1.8125 7.515625 -1.8125 C 9.984375 -1.8125 11.914062 -2.59375 13.3125 -4.15625 C 14.71875 -5.71875 15.421875 -7.984375 15.421875 -10.953125 C 15.421875 -11.503906 15.390625 -12.113281 15.328125 -12.78125 C 14.773438 -11.5625 13.890625 -10.617188 12.671875 -9.953125 C 11.460938 -9.285156 10.070312 -8.953125 8.5 -8.953125 C 7.039062 -8.953125 5.742188 -9.226562 4.609375 -9.78125 C 3.472656 -10.332031 2.582031 -11.113281 1.9375 -12.125 C 1.300781 -13.132812 0.984375 -14.304688 0.984375 -15.640625 C 0.984375 -17.003906 1.3125 -18.203125 1.96875 -19.234375 C 2.632812 -20.273438 3.546875 -21.078125 4.703125 -21.640625 C 5.859375 -22.210938 7.160156 -22.5 8.609375 -22.5 Z M 8.859375 -10.890625 C 9.984375 -10.890625 10.972656 -11.101562 11.828125 -11.53125 C 12.691406 -11.957031 13.367188 -12.539062 13.859375 -13.28125 C 14.347656 -14.03125 14.59375 -14.859375 14.59375 -15.765625 C 14.59375 -16.617188 14.363281 -17.40625 13.90625 -18.125 C 13.445312 -18.851562 12.769531 -19.4375 11.875 -19.875 C 10.988281 -20.320312 9.929688 -20.546875 8.703125 -20.546875 C 7.085938 -20.546875 5.773438 -20.101562 4.765625 -19.21875 C 3.753906 -18.34375 3.25 -17.171875 3.25 -15.703125 C 3.25 -14.242188 3.753906 -13.078125 4.765625 -12.203125 C 5.773438 -11.328125 7.140625 -10.890625 8.859375 -10.890625 Z M 8.859375 -10.890625 "/></g></g></g><g clip-path="url(#37b48d1e85)"><path fill="#d7caab" d="M 130.957031 11.105469 L 136.515625 22.371094 L 148.945312 24.175781 L 139.949219 32.953125 L 142.078125 45.335938 L 130.957031 39.488281 L 119.828125 45.335938 L 121.953125 32.953125 L 112.960938 24.175781 L 125.394531 22.371094 Z M 130.957031 11.105469 " fill-opacity="1" fill-rule="nonzero"/></g><g clip-path="url(#748db4145b)"><path fill="#d7caab" d="M 130.871094 10.996094 L 136.4375 22.261719 L 148.867188 24.070312 L 139.871094 32.84375 L 141.992188 45.226562 L 130.871094 39.382812 L 119.75 45.226562 L 121.871094 32.84375 L 112.875 24.070312 L 125.308594 22.261719 Z M 130.871094 10.996094 " fill-opacity="1" fill-rule="nonzero"/><path fill="#d7caab" d="M 130.871094 10.996094 L 136.4375 22.261719 L 148.867188 24.070312 L 139.871094 32.84375 L 141.992188 45.226562 L 130.871094 39.382812 L 119.75 45.226562 L 121.871094 32.84375 L 112.875 24.070312 L 125.308594 22.261719 Z M 130.871094 10.996094 " fill-opacity="1" fill-rule="nonzero"/><path fill="#d7caab" d="M 130.871094 10.996094 L 136.4375 22.261719 L 148.867188 24.070312 L 139.871094 32.84375 L 141.992188 45.226562 L 130.871094 39.382812 L 119.75 45.226562 L 121.871094 32.84375 L 112.875 24.070312 L 125.308594 22.261719 Z M 130.871094 10.996094 " fill-opacity="1" fill-rule="nonzero"/></g><g clip-path="url(#8fb2043704)"><path fill="#d7caab" d="M 171.179688 11.105469 L 176.734375 22.371094 L 189.167969 24.175781 L 180.167969 32.953125 L 182.300781 45.335938 L 171.179688 39.488281 L 160.050781 45.335938 L 162.171875 32.953125 L 153.183594 24.175781 L 165.613281 22.371094 Z M 171.179688 11.105469 " fill-opacity="1" fill-rule="nonzero"/></g><g clip-path="url(#bf106d2dc4)"><path fill="#d7caab" d="M 171.09375 10.996094 L 176.65625 22.261719 L 189.089844 24.070312 L 180.089844 32.84375 L 182.214844 45.226562 L 171.09375 39.382812 L 159.96875 45.226562 L 162.09375 32.84375 L 153.09375 24.070312 L 165.527344 22.261719 Z M 171.09375 10.996094 " fill-opacity="1" fill-rule="nonzero"/><path fill="#d7caab" d="M 171.09375 10.996094 L 176.65625 22.261719 L 189.089844 24.070312 L 180.089844 32.84375 L 182.214844 45.226562 L 171.09375 39.382812 L 159.96875 45.226562 L 162.09375 32.84375 L 153.09375 24.070312 L 165.527344 22.261719 Z M 171.09375 10.996094 " fill-opacity="1" fill-rule="nonzero"/><path fill="#d7caab" d="M 171.09375 10.996094 L 176.65625 22.261719 L 189.089844 24.070312 L 180.089844 32.84375 L 182.214844 45.226562 L 171.09375 39.382812 L 159.96875 45.226562 L 162.09375 32.84375 L 153.09375 24.070312 L 165.527344 22.261719 Z M 171.09375 10.996094 " fill-opacity="1" fill-rule="nonzero"/></g><g clip-path="url(#e147efffc0)"><path fill="#d7caab" d="M 211.398438 11.105469 L 216.957031 22.371094 L 229.386719 24.175781 L 220.390625 32.953125 L 222.519531 45.335938 L 211.398438 39.488281 L 200.269531 45.335938 L 202.394531 32.953125 L 193.402344 24.175781 L 205.835938 22.371094 Z M 211.398438 11.105469 " fill-opacity="1" fill-rule="nonzero"/></g><g clip-path="url(#f2d374ac80)"><path fill="#d7caab" d="M 211.3125 10.996094 L 216.878906 22.261719 L 229.308594 24.070312 L 220.3125 32.84375 L 222.433594 45.226562 L 211.3125 39.382812 L 200.191406 45.226562 L 202.316406 32.84375 L 193.316406 24.070312 L 205.75 22.261719 Z M 211.3125 10.996094 " fill-opacity="1" fill-rule="nonzero"/><path fill="#d7caab" d="M 211.3125 10.996094 L 216.878906 22.261719 L 229.308594 24.070312 L 220.3125 32.84375 L 222.433594 45.226562 L 211.3125 39.382812 L 200.191406 45.226562 L 202.316406 32.84375 L 193.316406 24.070312 L 205.75 22.261719 Z M 211.3125 10.996094 " fill-opacity="1" fill-rule="nonzero"/><path fill="#d7caab" d="M 211.3125 10.996094 L 216.878906 22.261719 L 229.308594 24.070312 L 220.3125 32.84375 L 222.433594 45.226562 L 211.3125 39.382812 L 200.191406 45.226562 L 202.316406 32.84375 L 193.316406 24.070312 L 205.75 22.261719 Z M 211.3125 10.996094 " fill-opacity="1" fill-rule="nonzero"/></g><g clip-path="url(#237f765c98)"><path fill="#d7caab" d="M 251.621094 11.105469 L 257.175781 22.371094 L 269.609375 24.175781 L 260.609375 32.953125 L 262.742188 45.335938 L 251.621094 39.488281 L 240.492188 45.335938 L 242.613281 32.953125 L 233.625 24.175781 L 246.054688 22.371094 Z M 251.621094 11.105469 " fill-opacity="1" fill-rule="nonzero"/></g><g clip-path="url(#2d24b1bbae)"><path fill="#d7caab" d="M 251.535156 10.996094 L 257.097656 22.261719 L 269.53125 24.070312 L 260.53125 32.84375 L 262.65625 45.226562 L 251.535156 39.382812 L 240.410156 45.226562 L 242.535156 32.84375 L 233.539062 24.070312 L 245.96875 22.261719 Z M 251.535156 10.996094 " fill-opacity="1" fill-rule="nonzero"/><path fill="#d7caab" d="M 251.535156 10.996094 L 257.097656 22.261719 L 269.53125 24.070312 L 260.53125 32.84375 L 262.65625 45.226562 L 251.535156 39.382812 L 240.410156 45.226562 L 242.535156 32.84375 L 233.539062 24.070312 L 245.96875 22.261719 Z M 251.535156 10.996094 " fill-opacity="1" fill-rule="nonzero"/><path fill="#d7caab" d="M 251.535156 10.996094 L 257.097656 22.261719 L 269.53125 24.070312 L 260.53125 32.84375 L 262.65625 45.226562 L 251.535156 39.382812 L 240.410156 45.226562 L 242.535156 32.84375 L 233.539062 24.070312 L 245.96875 22.261719 Z M 251.535156 10.996094 " fill-opacity="1" fill-rule="nonzero"/></g><g fill="#000000" fill-opacity="1"><g transform="translate(285.981843, 39.038569)"><g><path d="M 7.84375 -22.296875 L 7.84375 0 L 5.546875 0 L 5.546875 -20.265625 L 0.28125 -20.265625 L 0.28125 -22.296875 Z M 7.84375 -22.296875 "/></g></g></g><g fill="#000000" fill-opacity="1"><g transform="translate(297.485464, 39.038569)"><g><path d="M 17.390625 -22.296875 L 17.390625 -20.671875 L 8.0625 0 L 5.578125 0 L 14.75 -20.265625 L 3.28125 -20.265625 L 3.28125 -16.09375 L 1.015625 -16.09375 L 1.015625 -22.296875 Z M 17.390625 -22.296875 "/></g></g></g><g fill="#000000" fill-opacity="1"><g transform="translate(316.254524, 39.038569)"><g><path d="M 10.546875 0.1875 C 8.828125 0.1875 7.289062 -0.265625 5.9375 -1.171875 C 4.59375 -2.085938 3.539062 -3.398438 2.78125 -5.109375 C 2.03125 -6.816406 1.65625 -8.832031 1.65625 -11.15625 C 1.65625 -13.46875 2.03125 -15.476562 2.78125 -17.1875 C 3.539062 -18.894531 4.59375 -20.207031 5.9375 -21.125 C 7.289062 -22.039062 8.828125 -22.5 10.546875 -22.5 C 12.265625 -22.5 13.796875 -22.039062 15.140625 -21.125 C 16.492188 -20.207031 17.550781 -18.894531 18.3125 -17.1875 C 19.082031 -15.476562 19.46875 -13.46875 19.46875 -11.15625 C 19.46875 -8.832031 19.082031 -6.816406 18.3125 -5.109375 C 17.550781 -3.398438 16.492188 -2.085938 15.140625 -1.171875 C 13.796875 -0.265625 12.265625 0.1875 10.546875 0.1875 Z M 10.546875 -1.90625 C 11.835938 -1.90625 12.976562 -2.265625 13.96875 -2.984375 C 14.957031 -3.710938 15.726562 -4.765625 16.28125 -6.140625 C 16.832031 -7.523438 17.109375 -9.195312 17.109375 -11.15625 C 17.109375 -13.101562 16.832031 -14.765625 16.28125 -16.140625 C 15.726562 -17.523438 14.957031 -18.578125 13.96875 -19.296875 C 12.976562 -20.023438 11.835938 -20.390625 10.546875 -20.390625 C 9.253906 -20.390625 8.113281 -20.023438 7.125 -19.296875 C 6.132812 -18.578125 5.363281 -17.523438 4.8125 -16.140625 C 4.257812 -14.765625 3.984375 -13.101562 3.984375 -11.15625 C 3.984375 -9.195312 4.257812 -7.523438 4.8125 -6.140625 C 5.363281 -4.765625 6.132812 -3.710938 7.125 -2.984375 C 8.113281 -2.265625 9.253906 -1.90625 10.546875 -1.90625 Z M 10.546875 -1.90625 "/></g></g></g><g fill="#000000" fill-opacity="1"><g transform="translate(337.349795, 39.038569)"><g/></g></g><g fill="#000000" fill-opacity="1"><g transform="translate(345.698683, 39.038569)"><g><path d="M 9.015625 -16.890625 C 11.203125 -16.890625 12.878906 -16.34375 14.046875 -15.25 C 15.210938 -14.15625 15.796875 -12.535156 15.796875 -10.390625 L 15.796875 0 L 13.640625 0 L 13.640625 -2.609375 C 13.128906 -1.742188 12.378906 -1.066406 11.390625 -0.578125 C 10.398438 -0.0859375 9.226562 0.15625 7.875 0.15625 C 6 0.15625 4.507812 -0.285156 3.40625 -1.171875 C 2.300781 -2.066406 1.75 -3.25 1.75 -4.71875 C 1.75 -6.132812 2.265625 -7.28125 3.296875 -8.15625 C 4.328125 -9.03125 5.96875 -9.46875 8.21875 -9.46875 L 13.546875 -9.46875 L 13.546875 -10.484375 C 13.546875 -11.921875 13.140625 -13.015625 12.328125 -13.765625 C 11.523438 -14.523438 10.347656 -14.90625 8.796875 -14.90625 C 7.734375 -14.90625 6.710938 -14.726562 5.734375 -14.375 C 4.753906 -14.03125 3.914062 -13.550781 3.21875 -12.9375 L 2.203125 -14.625 C 3.046875 -15.34375 4.0625 -15.898438 5.25 -16.296875 C 6.445312 -16.691406 7.703125 -16.890625 9.015625 -16.890625 Z M 8.21875 -1.625 C 9.488281 -1.625 10.582031 -1.914062 11.5 -2.5 C 12.414062 -3.082031 13.097656 -3.925781 13.546875 -5.03125 L 13.546875 -7.78125 L 8.28125 -7.78125 C 5.414062 -7.78125 3.984375 -6.78125 3.984375 -4.78125 C 3.984375 -3.800781 4.351562 -3.03125 5.09375 -2.46875 C 5.84375 -1.90625 6.882812 -1.625 8.21875 -1.625 Z M 8.21875 -1.625 "/></g></g></g><g fill="#000000" fill-opacity="1"><g transform="translate(364.499606, 39.038569)"><g><path d="M 17.234375 -16.765625 L 9.78125 0 L 7.453125 0 L 0.03125 -16.765625 L 2.390625 -16.765625 L 8.671875 -2.484375 L 15 -16.765625 Z M 17.234375 -16.765625 "/></g></g></g><g fill="#000000" fill-opacity="1"><g transform="translate(381.770957, 39.038569)"><g><path d="M 3.15625 -16.765625 L 5.421875 -16.765625 L 5.421875 0 L 3.15625 0 Z M 4.296875 -20.421875 C 3.828125 -20.421875 3.429688 -20.578125 3.109375 -20.890625 C 2.796875 -21.210938 2.640625 -21.597656 2.640625 -22.046875 C 2.640625 -22.472656 2.796875 -22.84375 3.109375 -23.15625 C 3.429688 -23.476562 3.828125 -23.640625 4.296875 -23.640625 C 4.765625 -23.640625 5.15625 -23.484375 5.46875 -23.171875 C 5.789062 -22.867188 5.953125 -22.503906 5.953125 -22.078125 C 5.953125 -21.609375 5.789062 -21.210938 5.46875 -20.890625 C 5.15625 -20.578125 4.765625 -20.421875 4.296875 -20.421875 Z M 4.296875 -20.421875 "/></g></g></g><g fill="#000000" fill-opacity="1"><g transform="translate(390.342907, 39.038569)"><g><path d="M 7.640625 0.15625 C 6.285156 0.15625 4.984375 -0.0351562 3.734375 -0.421875 C 2.492188 -0.816406 1.523438 -1.3125 0.828125 -1.90625 L 1.84375 -3.703125 C 2.550781 -3.148438 3.429688 -2.695312 4.484375 -2.34375 C 5.546875 -1.988281 6.65625 -1.8125 7.8125 -1.8125 C 9.332031 -1.8125 10.457031 -2.050781 11.1875 -2.53125 C 11.925781 -3.007812 12.296875 -3.6875 12.296875 -4.5625 C 12.296875 -5.175781 12.09375 -5.65625 11.6875 -6 C 11.289062 -6.351562 10.78125 -6.617188 10.15625 -6.796875 C 9.539062 -6.984375 8.722656 -7.160156 7.703125 -7.328125 C 6.347656 -7.578125 5.253906 -7.832031 4.421875 -8.09375 C 3.597656 -8.363281 2.894531 -8.816406 2.3125 -9.453125 C 1.726562 -10.097656 1.4375 -10.984375 1.4375 -12.109375 C 1.4375 -13.503906 2.019531 -14.648438 3.1875 -15.546875 C 4.351562 -16.441406 5.976562 -16.890625 8.0625 -16.890625 C 9.144531 -16.890625 10.226562 -16.742188 11.3125 -16.453125 C 12.394531 -16.171875 13.285156 -15.796875 13.984375 -15.328125 L 13 -13.515625 C 11.613281 -14.460938 9.96875 -14.9375 8.0625 -14.9375 C 6.613281 -14.9375 5.523438 -14.679688 4.796875 -14.171875 C 4.066406 -13.660156 3.703125 -12.992188 3.703125 -12.171875 C 3.703125 -11.535156 3.90625 -11.023438 4.3125 -10.640625 C 4.726562 -10.253906 5.242188 -9.972656 5.859375 -9.796875 C 6.472656 -9.617188 7.320312 -9.429688 8.40625 -9.234375 C 9.75 -8.984375 10.820312 -8.726562 11.625 -8.46875 C 12.4375 -8.21875 13.128906 -7.785156 13.703125 -7.171875 C 14.273438 -6.554688 14.5625 -5.707031 14.5625 -4.625 C 14.5625 -3.15625 13.945312 -1.988281 12.71875 -1.125 C 11.5 -0.269531 9.804688 0.15625 7.640625 0.15625 Z M 7.640625 0.15625 "/></g></g></g></svg>