<svg xmlns="http://www.w3.org/2000/svg" xmlns:xlink="http://www.w3.org/1999/xlink" width="50" zoomAndPan="magnify" viewBox="0 0 37.5 37.499999" height="50" preserveAspectRatio="xMidYMid meet" version="1.0"><defs><clipPath id="2e373cfcb8"><path d="M 0 0 L 37.007812 0 L 37.007812 37.007812 L 0 37.007812 Z M 0 0 " clip-rule="nonzero"/></clipPath><clipPath id="6d973bb10d"><path d="M 18.503906 0 C 8.285156 0 0 8.285156 0 18.503906 C 0 28.722656 8.285156 37.007812 18.503906 37.007812 C 28.722656 37.007812 37.007812 28.722656 37.007812 18.503906 C 37.007812 8.285156 28.722656 0 18.503906 0 Z M 18.503906 0 " clip-rule="nonzero"/></clipPath><clipPath id="ecbbf48eaf"><path d="M 5.136719 7.15625 L 31.78125 7.15625 L 31.78125 30 L 5.136719 30 Z M 5.136719 7.15625 " clip-rule="nonzero"/></clipPath></defs><g clip-path="url(#2e373cfcb8)"><g clip-path="url(#6d973bb10d)"><path fill="#e7c6a2" d="M 0 0 L 37.007812 0 L 37.007812 37.007812 L 0 37.007812 Z M 0 0 " fill-opacity="1" fill-rule="nonzero"/></g></g><g clip-path="url(#ecbbf48eaf)"><path fill="#ffffff" d="M 5.136719 20.308594 L 8.210938 16.292969 L 12.175781 22.144531 C 12.175781 22.144531 18.472656 9.898438 31.859375 7.171875 C 25.847656 10.136719 15.203125 22.035156 13.367188 29.832031 C 8.257812 23.085938 5.136719 20.308594 5.136719 20.308594 " fill-opacity="1" fill-rule="nonzero"/></g></svg>